<?xml version="1.0" encoding="UTF-8"?>
<svg id="Calque_1" data-name="Calque 1" xmlns="http://www.w3.org/2000/svg" viewBox="0 0 1814.01 1387.58">
  <defs>
    <style>
      .cls-1, .cls-2 {
        fill: #3970b2;
      }

      .cls-1, .cls-3, .cls-4 {
        stroke-width: 0px;
      }

      .cls-2 {
        font-family: Centaur, Centaur;
        font-size: 240px;
      }

      .cls-5 {
        letter-spacing: .04em;
      }

      .cls-3 {
        opacity: .11;
      }

      .cls-3, .cls-6 {
        fill: #ff0;
      }

      .cls-6 {
        stroke: #ff0;
        stroke-miterlimit: 10;
        stroke-width: 10px;
      }

      .cls-4 {
        fill: #39b54a;
      }
    </style>
  </defs>
  <circle class="cls-6" cx="1028.14" cy="423.34" r="418.34"/>
  <g>
    <path class="cls-3" d="M1196.61,1383.55c.85,0-.69-1.38-.67-1.36-.65-.64-1.32-1.27-2-1.87-.33-.36-.72-.64-1.16-.84-.85,0,.69,1.38.67,1.36.65.64,1.32,1.27,2,1.87.33.36.72.64,1.16.84Z"/>
    <path class="cls-3" d="M1197.1,1387.58c.72,0-1.13-2.79-1.78-2.79-.72,0,1.13,2.79,1.78,2.79Z"/>
    <path class="cls-3" d="M1194.37,1380.93c-.13-.47-.41-.85-.82-1.14-1.24-1.2-2.51-2.38-3.8-3.53-1.28-1.17-2.58-2.3-3.91-3.41-.34-.38-.74-.62-1.22-.7.13.47.41.85.82,1.14,1.24,1.2,2.51,2.38,3.8,3.53,1.28,1.17,2.58,2.3,3.91,3.41.34.38.74.62,1.22.7Z"/>
    <path class="cls-3" d="M1194.59,1382.95c-.03-.4-.2-.75-.53-1.03-.89-1.08-1.81-2.14-2.76-3.18-.93-1.05-1.89-2.07-2.88-3.07-.25-.35-.57-.56-.97-.63.03.4.2.75.53,1.03.89,1.08,1.81,2.14,2.76,3.18.93,1.05,1.89,2.07,2.88,3.07.25.35.57.56.97.63Z"/>
    <path class="cls-3" d="M1197.28,1383.08c.71,0-.35-.99-.35-.99-.45-.43-1.46-1.57-2.16-1.57s.35.99.35.99c.45.43,1.46,1.57,2.16,1.57Z"/>
    <path class="cls-3" d="M1194.23,1380.29c-.07-.39-.28-.69-.63-.92-1-.92-2.02-1.81-3.06-2.68-1.03-.88-2.09-1.73-3.17-2.56-.29-.31-.63-.46-1.02-.47.07.39.28.69.63.92,1,.92,2.02,1.81,3.06,2.68,1.03.88,2.09,1.73,3.17,2.56.29.31.63.46,1.02.47Z"/>
    <path class="cls-3" d="M1195.21,1384.54c-.04-.45-.24-.84-.58-1.17-.97-1.27-1.98-2.52-3.01-3.75-1.02-1.24-2.06-2.46-3.13-3.65-.26-.4-.61-.67-1.04-.79.04.45.24.84.58,1.17.97,1.27,1.98,2.52,3.01,3.75,1.02,1.24,2.06,2.46,3.13,3.65.26.4.61.67,1.04.79Z"/>
    <path class="cls-3" d="M1196.19,1381.68c.6,0-.16-.8-.2-.83-.35-.37-1.09-1.08-1.65-1.08-.6,0,.16.8.2.83.35.37,1.09,1.08,1.65,1.08Z"/>
    <path class="cls-3" d="M1194.86,1382.5c-.14-.52-.42-.95-.86-1.31-1.3-1.42-2.63-2.82-3.98-4.19-1.34-1.39-2.7-2.75-4.1-4.08-.34-.44-.77-.74-1.28-.89.14.52.42.95.86,1.31,1.3,1.42,2.63,2.82,3.98,4.19,1.34,1.39,2.7,2.75,4.1,4.08.34.44.77.74,1.28.89Z"/>
    <path class="cls-3" d="M1194.66,1381.71c.9,0-.83-1.5-.8-1.48-.73-.72-1.48-1.42-2.25-2.1-.38-.4-.81-.72-1.29-.96-.9,0,.83,1.5.8,1.48.73.72,1.48,1.42,2.25,2.1.38.4.81.72,1.29.96Z"/>
    <path class="cls-3" d="M1197.08,1381.58c.56,0-.13-.74-.16-.77-.33-.35-.98-.84-1.48-.84-.56,0,.13.74.16.77.33.35.98.84,1.48.84Z"/>
    <path class="cls-3" d="M1194.46,1383.34c-.07-.48-.29-.89-.66-1.23-1.07-1.35-2.16-2.67-3.29-3.97-1.11-1.31-2.25-2.6-3.41-3.87-.28-.42-.65-.7-1.12-.85.07.48.29.89.66,1.23,1.07,1.35,2.16,2.67,3.29,3.97,1.11,1.31,2.25,2.6,3.41,3.87.28.42.65.7,1.12.85Z"/>
  </g>
  <path class="cls-4" d="M1813.88,970.83c-3.03-.23-18.62,5.63-44.94,16.24-19.55,7.84-39.27,15.92-59.31,23.8-215.94,91.68-452.59,118.49-659.12-16.88-143.16-92.79-244.09-242.18-393.23-326.99-117.21-68.75-266.79-85.4-392.15-29.72-96.04,38.96-177.25,130.97-226.65,215.56-21.22,36.95-31.11,54.36-38.28,75.31-.24,1-.27,1.62-.1,1.86.17.24.53.11,1.09-.4,10.67-13.07,31.88-48.27,52.26-76.74,49.53-71.71,124.14-157.38,209.51-194.59,121.83-58.41,269.52-43.83,385.02,23.49,150.07,84.66,251.09,235.07,395.2,328.05,215.1,141.57,480.8,110.47,699.56.55,22.14-10.72,74.03-36.16,71.15-39.56h-.02Z"/>
  <path class="cls-4" d="M1813.88,1091.62c-3.03-.23-18.62,5.63-44.94,16.24-19.55,7.84-39.27,15.92-59.31,23.8-215.94,91.68-452.59,118.49-659.12-16.88-143.16-92.79-244.09-242.18-393.23-326.99-117.21-68.75-266.79-85.4-392.15-29.72-96.04,38.96-177.25,130.97-226.65,215.56-21.22,36.95-31.11,54.36-38.28,75.31-.24,1-.27,1.62-.1,1.86.17.24.53.11,1.09-.4,10.67-13.07,31.88-48.27,52.26-76.74,49.53-71.71,124.14-157.38,209.51-194.59,121.83-58.41,269.52-43.83,385.02,23.49,150.07,84.66,251.09,235.07,395.2,328.05,215.1,141.57,480.8,110.47,699.56.55,22.14-10.72,74.03-36.16,71.15-39.56h-.02Z"/>
  <g>
    <path class="cls-1" d="M1813.88,1009.13c-3.03-.23-18.62,5.63-44.94,16.24-19.55,7.84-39.27,15.92-59.31,23.8-215.94,91.68-452.59,118.49-659.12-16.88-143.16-92.79-244.09-242.18-393.23-326.99-117.21-68.75-266.79-85.4-392.15-29.72-96.04,38.96-177.25,130.97-226.65,215.56-21.22,36.95-31.11,54.36-38.28,75.31-.24,1-.27,1.62-.1,1.86.17.24.53.11,1.09-.4,10.67-13.07,31.88-48.27,52.26-76.74,49.53-71.71,124.14-157.38,209.51-194.59,121.83-58.41,269.52-43.83,385.02,23.49,150.07,84.66,251.09,235.07,395.2,328.05,215.1,141.57,480.8,110.47,699.56.55,22.14-10.72,74.03-36.16,71.15-39.56h-.02Z"/>
    <path class="cls-1" d="M1813.88,1045.96c-3.03-.23-18.62,5.63-44.94,16.24-19.55,7.84-39.27,15.92-59.31,23.8-215.94,91.68-452.59,118.49-659.12-16.88-143.16-92.79-244.09-242.18-393.23-326.99-117.21-68.75-266.79-85.4-392.15-29.72-96.04,38.96-177.25,130.97-226.65,215.56-21.22,36.95-31.11,54.36-38.28,75.31-.24,1-.27,1.62-.1,1.86.17.24.53.11,1.09-.4,10.67-13.07,31.88-48.27,52.26-76.74,49.53-71.71,124.14-157.38,209.51-194.59,121.83-58.41,269.52-43.83,385.02,23.49,150.07,84.66,251.09,235.07,395.2,328.05,215.1,141.57,480.8,110.47,699.56.55,22.14-10.72,74.03-36.16,71.15-39.56h-.02Z"/>
  </g>
  <text class="cls-2" transform="translate(40.23 1191.41)"><tspan x="0" y="0">Cap O</tspan><tspan class="cls-5" x="591.45" y="0">r</tspan><tspan x="675" y="0">ne</tspan></text>
</svg>